<svg xmlns="http://www.w3.org/2000/svg" version="1.1" xmlns:xlink="http://www.w3.org/1999/xlink" width="1000" height="1000"><style>
    #light-icon {
      display: inline;
    }
    #dark-icon {
      display: none;
    }

    @media (prefers-color-scheme: dark) {
      #light-icon {
        display: none;
      }
      #dark-icon {
        display: inline;
      }
    }
  </style><g id="light-icon"><svg xmlns="http://www.w3.org/2000/svg" version="1.1" xmlns:xlink="http://www.w3.org/1999/xlink" width="1000" height="1000"><g><g transform="matrix(30.303030303030305,0,0,30.303030303030305,0,45.45454545454544)"><svg xmlns="http://www.w3.org/2000/svg" version="1.1" xmlns:xlink="http://www.w3.org/1999/xlink" width="33" height="30"><svg width="33" height="30" viewBox="0 0 33 30" fill="none" xmlns="http://www.w3.org/2000/svg">
<path d="M14.1428 5.73682C14.1428 5.18453 14.5905 4.73682 15.1428 4.73682H28.8571C29.4094 4.73682 29.8571 5.18453 29.8571 5.73682V8.47366C29.8571 9.02594 29.4094 9.47366 28.8571 9.47366H15.1428C14.5905 9.47366 14.1428 9.02594 14.1428 8.47366V5.73682Z" fill="#474747"></path>
<rect x="29.8572" y="9.47363" width="3.14286" height="9.47368" rx="1" fill="#474747"></rect>
<path d="M14.1428 5.73682C14.1428 5.18453 14.5905 4.73682 15.1428 4.73682H28.8571C29.4094 4.73682 29.8571 5.18453 29.8571 5.73682V8.47366C29.8571 9.02594 29.4094 9.47366 28.8571 9.47366H15.1428C14.5905 9.47366 14.1428 9.02594 14.1428 8.47366V5.73682Z" fill="#474747"></path>
<rect x="29.8572" y="9.47363" width="3.14286" height="9.47368" rx="1" fill="#474747"></rect>
<rect y="11.0526" width="12.5714" height="18.9474" rx="1" fill="#912727"></rect>
<rect x="7.85712" width="4.71429" height="4.73684" rx="1" fill="#3D6082"></rect>
<path d="M14.1428 5.73682C14.1428 5.18453 14.5905 4.73682 15.1428 4.73682H28.8571C29.4094 4.73682 29.8571 5.18453 29.8571 5.73682V8.47366C29.8571 9.02594 29.4094 9.47366 28.8571 9.47366H15.1428C14.5905 9.47366 14.1428 9.02594 14.1428 8.47366V5.73682Z" fill="#474747"></path>
<rect x="29.8572" y="9.47363" width="3.14286" height="9.47368" rx="1" fill="#474747"></rect>
<path d="M14.1428 5.73682C14.1428 5.18453 14.5905 4.73682 15.1428 4.73682H28.8571C29.4094 4.73682 29.8571 5.18453 29.8571 5.73682V8.47366C29.8571 9.02594 29.4094 9.47366 28.8571 9.47366H15.1428C14.5905 9.47366 14.1428 9.02594 14.1428 8.47366V5.73682Z" fill="#474747"></path>
<rect x="29.8572" y="9.47363" width="3.14286" height="9.47368" rx="1" fill="#474747"></rect>
<rect y="11.0526" width="12.5714" height="18.9474" rx="1" fill="#912727"></rect>
<rect x="7.85712" width="4.71429" height="4.73684" rx="1" fill="#3D6082"></rect>
<path d="M14.1428 5.73682C14.1428 5.18453 14.5905 4.73682 15.1428 4.73682H28.8571C29.4094 4.73682 29.8571 5.18453 29.8571 5.73682V8.47366C29.8571 9.02594 29.4094 9.47366 28.8571 9.47366H15.1428C14.5905 9.47366 14.1428 9.02594 14.1428 8.47366V5.73682Z" fill="#474747"></path>
<rect x="29.8572" y="9.47363" width="3.14286" height="9.47368" rx="1" fill="#474747"></rect>
<path d="M14.1428 5.73682C14.1428 5.18453 14.5905 4.73682 15.1428 4.73682H28.8571C29.4094 4.73682 29.8571 5.18453 29.8571 5.73682V8.47366C29.8571 9.02594 29.4094 9.47366 28.8571 9.47366H15.1428C14.5905 9.47366 14.1428 9.02594 14.1428 8.47366V5.73682Z" fill="#474747"></path>
<rect x="29.8572" y="9.47363" width="3.14286" height="9.47368" rx="1" fill="#474747"></rect>
<rect y="11.0526" width="12.5714" height="18.9474" rx="1" fill="#912727"></rect>
<rect x="7.85712" width="4.71429" height="4.73684" rx="1" fill="#3D6082"></rect>
<path d="M14.1428 5.73682C14.1428 5.18453 14.5905 4.73682 15.1428 4.73682H28.8571C29.4094 4.73682 29.8571 5.18453 29.8571 5.73682V8.47366C29.8571 9.02594 29.4094 9.47366 28.8571 9.47366H15.1428C14.5905 9.47366 14.1428 9.02594 14.1428 8.47366V5.73682Z" fill="#474747"></path>
<rect x="29.8572" y="9.47363" width="3.14286" height="9.47368" rx="1" fill="#474747"></rect>
<path d="M14.1428 5.73682C14.1428 5.18453 14.5905 4.73682 15.1428 4.73682H28.8571C29.4094 4.73682 29.8571 5.18453 29.8571 5.73682V8.47366C29.8571 9.02594 29.4094 9.47366 28.8571 9.47366H15.1428C14.5905 9.47366 14.1428 9.02594 14.1428 8.47366V5.73682Z" fill="#474747"></path>
<rect x="29.8572" y="9.47363" width="3.14286" height="9.47368" rx="1" fill="#474747"></rect>
<rect y="11.0526" width="12.5714" height="18.9474" rx="1" fill="#912727"></rect>
<rect x="7.85712" width="4.71429" height="4.73684" rx="1" fill="#3D6082"></rect>
<path d="M20.9086 18.9474H28.8572C29.4095 18.9474 29.8572 19.3951 29.8572 19.9474V29C29.8572 29.5523 29.4095 30 28.8572 30H27.9875C27.6798 30 27.3893 29.8584 27.1998 29.616L20.1208 20.5634C19.6075 19.9069 20.0752 18.9474 20.9086 18.9474Z" fill="#474747"></path>
</svg></svg></g></g></svg></g><g id="dark-icon"><svg xmlns="http://www.w3.org/2000/svg" version="1.1" xmlns:xlink="http://www.w3.org/1999/xlink" width="1000" height="1000"><g><g transform="matrix(30.303030303030305,0,0,30.303030303030305,0,45.45454545454544)"><svg xmlns="http://www.w3.org/2000/svg" version="1.1" xmlns:xlink="http://www.w3.org/1999/xlink" width="33" height="30"><svg width="33" height="30" viewBox="0 0 33 30" fill="none" xmlns="http://www.w3.org/2000/svg">
<path d="M14.1428 5.73682C14.1428 5.18453 14.5905 4.73682 15.1428 4.73682H28.8571C29.4094 4.73682 29.8571 5.18453 29.8571 5.73682V8.47366C29.8571 9.02594 29.4094 9.47366 28.8571 9.47366H15.1428C14.5905 9.47366 14.1428 9.02594 14.1428 8.47366V5.73682Z" fill="white"></path>
<rect x="29.8572" y="9.47363" width="3.14286" height="9.47368" rx="1" fill="white"></rect>
<path d="M14.1428 5.73682C14.1428 5.18453 14.5905 4.73682 15.1428 4.73682H28.8571C29.4094 4.73682 29.8571 5.18453 29.8571 5.73682V8.47366C29.8571 9.02594 29.4094 9.47366 28.8571 9.47366H15.1428C14.5905 9.47366 14.1428 9.02594 14.1428 8.47366V5.73682Z" fill="white"></path>
<rect x="29.8572" y="9.47363" width="3.14286" height="9.47368" rx="1" fill="white"></rect>
<rect y="11.0526" width="12.5714" height="18.9474" rx="1" fill="#912727"></rect>
<rect x="7.85712" width="4.71429" height="4.73684" rx="1" fill="#3D6082"></rect>
<path d="M14.1428 5.73682C14.1428 5.18453 14.5905 4.73682 15.1428 4.73682H28.8571C29.4094 4.73682 29.8571 5.18453 29.8571 5.73682V8.47366C29.8571 9.02594 29.4094 9.47366 28.8571 9.47366H15.1428C14.5905 9.47366 14.1428 9.02594 14.1428 8.47366V5.73682Z" fill="white"></path>
<rect x="29.8572" y="9.47363" width="3.14286" height="9.47368" rx="1" fill="white"></rect>
<path d="M14.1428 5.73682C14.1428 5.18453 14.5905 4.73682 15.1428 4.73682H28.8571C29.4094 4.73682 29.8571 5.18453 29.8571 5.73682V8.47366C29.8571 9.02594 29.4094 9.47366 28.8571 9.47366H15.1428C14.5905 9.47366 14.1428 9.02594 14.1428 8.47366V5.73682Z" fill="white"></path>
<rect x="29.8572" y="9.47363" width="3.14286" height="9.47368" rx="1" fill="white"></rect>
<rect y="11.0526" width="12.5714" height="18.9474" rx="1" fill="#912727"></rect>
<rect x="7.85712" width="4.71429" height="4.73684" rx="1" fill="#3D6082"></rect>
<path d="M14.1428 5.73682C14.1428 5.18453 14.5905 4.73682 15.1428 4.73682H28.8571C29.4094 4.73682 29.8571 5.18453 29.8571 5.73682V8.47366C29.8571 9.02594 29.4094 9.47366 28.8571 9.47366H15.1428C14.5905 9.47366 14.1428 9.02594 14.1428 8.47366V5.73682Z" fill="white"></path>
<rect x="29.8572" y="9.47363" width="3.14286" height="9.47368" rx="1" fill="white"></rect>
<path d="M14.1428 5.73682C14.1428 5.18453 14.5905 4.73682 15.1428 4.73682H28.8571C29.4094 4.73682 29.8571 5.18453 29.8571 5.73682V8.47366C29.8571 9.02594 29.4094 9.47366 28.8571 9.47366H15.1428C14.5905 9.47366 14.1428 9.02594 14.1428 8.47366V5.73682Z" fill="white"></path>
<rect x="29.8572" y="9.47363" width="3.14286" height="9.47368" rx="1" fill="white"></rect>
<rect y="11.0526" width="12.5714" height="18.9474" rx="1" fill="#912727"></rect>
<rect x="7.85712" width="4.71429" height="4.73684" rx="1" fill="#3D6082"></rect>
<path d="M14.1428 5.73682C14.1428 5.18453 14.5905 4.73682 15.1428 4.73682H28.8571C29.4094 4.73682 29.8571 5.18453 29.8571 5.73682V8.47366C29.8571 9.02594 29.4094 9.47366 28.8571 9.47366H15.1428C14.5905 9.47366 14.1428 9.02594 14.1428 8.47366V5.73682Z" fill="white"></path>
<rect x="29.8572" y="9.47363" width="3.14286" height="9.47368" rx="1" fill="white"></rect>
<path d="M14.1428 5.73682C14.1428 5.18453 14.5905 4.73682 15.1428 4.73682H28.8571C29.4094 4.73682 29.8571 5.18453 29.8571 5.73682V8.47366C29.8571 9.02594 29.4094 9.47366 28.8571 9.47366H15.1428C14.5905 9.47366 14.1428 9.02594 14.1428 8.47366V5.73682Z" fill="white"></path>
<rect x="29.8572" y="9.47363" width="3.14286" height="9.47368" rx="1" fill="white"></rect>
<rect y="11.0526" width="12.5714" height="18.9474" rx="1" fill="#912727"></rect>
<rect x="7.85712" width="4.71429" height="4.73684" rx="1" fill="#3D6082"></rect>
<path d="M20.9086 18.9474H28.8572C29.4095 18.9474 29.8572 19.3951 29.8572 19.9474V29C29.8572 29.5523 29.4095 30 28.8572 30H27.9875C27.6798 30 27.3893 29.8584 27.1998 29.616L20.1208 20.5634C19.6075 19.9069 20.0752 18.9474 20.9086 18.9474Z" fill="white"></path>
</svg></svg></g></g></svg></g></svg>