<svg xmlns="http://www.w3.org/2000/svg" version="1.1" xmlns:xlink="http://www.w3.org/1999/xlink" width="1000" height="1000"><metadata><rdf:RDF xmlns:rdf="http://www.w3.org/1999/02/22-rdf-syntax-ns#" xmlns:dc="http://purl.org/dc/elements/1.1/"><rdf:Description><dc:creator>RealFaviconGenerator</dc:creator><dc:source>https://realfavicongenerator.net</dc:source></rdf:Description></rdf:RDF></metadata><style>
    #light-icon {
      display: inline;
    }
    #dark-icon {
      display: none;
    }

    @media (prefers-color-scheme: dark) {
      #light-icon {
        display: none;
      }
      #dark-icon {
        display: inline;
      }
    }
  </style><g id="light-icon"><svg xmlns="http://www.w3.org/2000/svg" version="1.1" xmlns:xlink="http://www.w3.org/1999/xlink" width="1000" height="1000"><g><g transform="matrix(1,0,0,1,0,0)"><svg xmlns="http://www.w3.org/2000/svg" width="1000" height="1000" viewBox="0 0 1000 1000" fill="none"><g clip-path="url(#clip0_534_666)">
<g clip-path="url(#clip1_534_666)">
<g clip-path="url(#clip2_534_666)">
<g clip-path="url(#clip3_534_666)">
<path d="M434.706 243.415C434.706 228.117 447.107 215.716 462.405 215.716H842.282C857.58 215.716 869.981 228.117 869.981 243.415V319.224C869.981 334.521 857.58 346.923 842.282 346.923H462.405C447.107 346.923 434.706 334.521 434.706 319.224V243.415Z" fill="#2A2A2A"></path>
<path d="M929.34 346.922H897.684C882.386 346.922 869.984 359.323 869.984 374.621V581.637C869.984 596.935 882.386 609.336 897.684 609.336H929.34C944.638 609.336 957.039 596.935 957.039 581.637V374.621C957.039 359.323 944.638 346.922 929.34 346.922Z" fill="#2A2A2A"></path>
<path d="M434.706 243.415C434.706 228.117 447.107 215.716 462.405 215.716H842.282C857.58 215.716 869.981 228.117 869.981 243.415V319.224C869.981 334.521 857.58 346.923 842.282 346.923H462.405C447.107 346.923 434.706 334.521 434.706 319.224V243.415Z" fill="#2A2A2A"></path>
<path d="M929.34 346.922H897.684C882.386 346.922 869.984 359.323 869.984 374.621V581.637C869.984 596.935 882.386 609.336 897.684 609.336H929.34C944.638 609.336 957.039 596.935 957.039 581.637V374.621C957.039 359.323 944.638 346.922 929.34 346.922Z" fill="#2A2A2A"></path>
<path d="M363.481 390.659H70.6602C55.3623 390.659 42.9609 403.061 42.9609 418.358V887.789C42.9609 903.087 55.3623 915.488 70.6602 915.488H363.481C378.779 915.488 391.18 903.087 391.18 887.789V418.358C391.18 403.061 378.779 390.659 363.481 390.659Z" fill="#2A2A2A"></path>
<path d="M363.481 84.5098H288.297C272.999 84.5098 260.598 96.9112 260.598 112.209V188.018C260.598 203.315 272.999 215.717 288.297 215.717H363.481C378.779 215.717 391.18 203.315 391.18 188.018V112.209C391.18 96.9112 378.779 84.5098 363.481 84.5098Z" fill="#2A2A2A"></path>
<path d="M434.706 243.415C434.706 228.117 447.107 215.716 462.405 215.716H842.282C857.58 215.716 869.981 228.117 869.981 243.415V319.224C869.981 334.521 857.58 346.923 842.282 346.923H462.405C447.107 346.923 434.706 334.521 434.706 319.224V243.415Z" fill="#2A2A2A"></path>
<path d="M929.34 346.922H897.684C882.386 346.922 869.984 359.323 869.984 374.621V581.637C869.984 596.935 882.386 609.336 897.684 609.336H929.34C944.638 609.336 957.039 596.935 957.039 581.637V374.621C957.039 359.323 944.638 346.922 929.34 346.922Z" fill="#2A2A2A"></path>
<path d="M434.706 243.415C434.706 228.117 447.107 215.716 462.405 215.716H842.282C857.58 215.716 869.981 228.117 869.981 243.415V319.224C869.981 334.521 857.58 346.923 842.282 346.923H462.405C447.107 346.923 434.706 334.521 434.706 319.224V243.415Z" fill="#2A2A2A"></path>
<path d="M929.34 346.922H897.684C882.386 346.922 869.984 359.323 869.984 374.621V581.637C869.984 596.935 882.386 609.336 897.684 609.336H929.34C944.638 609.336 957.039 596.935 957.039 581.637V374.621C957.039 359.323 944.638 346.922 929.34 346.922Z" fill="#2A2A2A"></path>
<path d="M363.481 390.659H70.6602C55.3623 390.659 42.9609 403.061 42.9609 418.358V887.789C42.9609 903.087 55.3623 915.488 70.6602 915.488H363.481C378.779 915.488 391.18 903.087 391.18 887.789V418.358C391.18 403.061 378.779 390.659 363.481 390.659Z" fill="#2A2A2A"></path>
<path d="M363.481 84.5098H288.297C272.999 84.5098 260.598 96.9112 260.598 112.209V188.018C260.598 203.315 272.999 215.717 288.297 215.717H363.481C378.779 215.717 391.18 203.315 391.18 188.018V112.209C391.18 96.9112 378.779 84.5098 363.481 84.5098Z" fill="#2A2A2A"></path>
<path d="M434.706 243.415C434.706 228.117 447.107 215.716 462.405 215.716H842.282C857.58 215.716 869.981 228.117 869.981 243.415V319.224C869.981 334.521 857.58 346.923 842.282 346.923H462.405C447.107 346.923 434.706 334.521 434.706 319.224V243.415Z" fill="#2A2A2A"></path>
<path d="M929.34 346.922H897.684C882.386 346.922 869.984 359.323 869.984 374.621V581.637C869.984 596.935 882.386 609.336 897.684 609.336H929.34C944.638 609.336 957.039 596.935 957.039 581.637V374.621C957.039 359.323 944.638 346.922 929.34 346.922Z" fill="#2A2A2A"></path>
<path d="M434.706 243.415C434.706 228.117 447.107 215.716 462.405 215.716H842.282C857.58 215.716 869.981 228.117 869.981 243.415V319.224C869.981 334.521 857.58 346.923 842.282 346.923H462.405C447.107 346.923 434.706 334.521 434.706 319.224V243.415Z" fill="#2A2A2A"></path>
<path d="M929.34 346.922H897.684C882.386 346.922 869.984 359.323 869.984 374.621V581.637C869.984 596.935 882.386 609.336 897.684 609.336H929.34C944.638 609.336 957.039 596.935 957.039 581.637V374.621C957.039 359.323 944.638 346.922 929.34 346.922Z" fill="#2A2A2A"></path>
<path d="M363.481 390.659H70.6602C55.3623 390.659 42.9609 403.061 42.9609 418.358V887.789C42.9609 903.087 55.3623 915.488 70.6602 915.488H363.481C378.779 915.488 391.18 903.087 391.18 887.789V418.358C391.18 403.061 378.779 390.659 363.481 390.659Z" fill="#2A2A2A"></path>
<path d="M363.481 84.5098H288.297C272.999 84.5098 260.598 96.9112 260.598 112.209V188.018C260.598 203.315 272.999 215.717 288.297 215.717H363.481C378.779 215.717 391.18 203.315 391.18 188.018V112.209C391.18 96.9112 378.779 84.5098 363.481 84.5098Z" fill="#2A2A2A"></path>
<path d="M434.706 243.415C434.706 228.117 447.107 215.716 462.405 215.716H842.282C857.58 215.716 869.981 228.117 869.981 243.415V319.224C869.981 334.521 857.58 346.923 842.282 346.923H462.405C447.107 346.923 434.706 334.521 434.706 319.224V243.415Z" fill="#2A2A2A"></path>
<path d="M929.34 346.922H897.684C882.386 346.922 869.984 359.323 869.984 374.621V581.637C869.984 596.935 882.386 609.336 897.684 609.336H929.34C944.638 609.336 957.039 596.935 957.039 581.637V374.621C957.039 359.323 944.638 346.922 929.34 346.922Z" fill="#2A2A2A"></path>
<path d="M434.706 243.415C434.706 228.117 447.107 215.716 462.405 215.716H842.282C857.58 215.716 869.981 228.117 869.981 243.415V319.224C869.981 334.521 857.58 346.923 842.282 346.923H462.405C447.107 346.923 434.706 334.521 434.706 319.224V243.415Z" fill="#2A2A2A"></path>
<path d="M929.34 346.922H897.684C882.386 346.922 869.984 359.323 869.984 374.621V581.637C869.984 596.935 882.386 609.336 897.684 609.336H929.34C944.638 609.336 957.039 596.935 957.039 581.637V374.621C957.039 359.323 944.638 346.922 929.34 346.922Z" fill="#2A2A2A"></path>
<path d="M363.481 390.659H70.6602C55.3623 390.659 42.9609 403.061 42.9609 418.358V887.789C42.9609 903.087 55.3623 915.488 70.6602 915.488H363.481C378.779 915.488 391.18 903.087 391.18 887.789V418.358C391.18 403.061 378.779 390.659 363.481 390.659Z" fill="#2A2A2A"></path>
<path d="M363.481 84.5098H288.297C272.999 84.5098 260.598 96.9112 260.598 112.209V188.018C260.598 203.315 272.999 215.717 288.297 215.717H363.481C378.779 215.717 391.18 203.315 391.18 188.018V112.209C391.18 96.9112 378.779 84.5098 363.481 84.5098Z" fill="#2A2A2A"></path>
<path d="M622.115 609.339H842.286C857.584 609.339 869.985 621.74 869.985 637.038V887.789C869.985 903.087 857.584 915.488 842.286 915.488H818.196C809.673 915.488 801.626 911.566 796.377 904.852L600.293 654.101C586.075 635.916 599.03 609.339 622.115 609.339Z" fill="#2A2A2A"></path>
</g>
</g>
</g>
</g><defs>
<clipPath id="clip0_534_666">
<rect width="914.077" height="914.077" fill="white" transform="translate(42.9609 42.9609)"></rect>
</clipPath>
<clipPath id="clip1_534_666">
<rect width="914.077" height="914.077" fill="white" transform="translate(42.9609 42.9609)"></rect>
</clipPath>
<clipPath id="clip2_534_666">
<rect width="914.077" height="830.978" fill="white" transform="translate(42.9609 84.5098)"></rect>
</clipPath>
<clipPath id="clip3_534_666">
<rect width="914.077" height="830.978" fill="white" transform="translate(42.9609 84.5098)"></rect>
</clipPath>
</defs></svg></g></g></svg></g><g id="dark-icon"><svg xmlns="http://www.w3.org/2000/svg" version="1.1" xmlns:xlink="http://www.w3.org/1999/xlink" width="1000" height="1000"><g><g transform="matrix(1,0,0,1,0,0)"><svg xmlns="http://www.w3.org/2000/svg" width="1000" height="1000" viewBox="0 0 1000 1000" fill="none"><g clip-path="url(#clip0_533_600)">
<g clip-path="url(#clip1_533_600)">
<g clip-path="url(#clip2_533_600)">
<g clip-path="url(#clip3_533_600)">
<path d="M434.706 243.415C434.706 228.117 447.107 215.716 462.405 215.716H842.282C857.58 215.716 869.981 228.117 869.981 243.415V319.224C869.981 334.521 857.58 346.923 842.282 346.923H462.405C447.107 346.923 434.706 334.521 434.706 319.224V243.415Z" fill="#EDEDED"></path>
<path d="M929.34 346.922H897.684C882.386 346.922 869.984 359.323 869.984 374.621V581.637C869.984 596.935 882.386 609.336 897.684 609.336H929.34C944.638 609.336 957.039 596.935 957.039 581.637V374.621C957.039 359.323 944.638 346.922 929.34 346.922Z" fill="#EDEDED"></path>
<path d="M434.706 243.415C434.706 228.117 447.107 215.716 462.405 215.716H842.282C857.58 215.716 869.981 228.117 869.981 243.415V319.224C869.981 334.521 857.58 346.923 842.282 346.923H462.405C447.107 346.923 434.706 334.521 434.706 319.224V243.415Z" fill="#EDEDED"></path>
<path d="M929.34 346.922H897.684C882.386 346.922 869.984 359.323 869.984 374.621V581.637C869.984 596.935 882.386 609.336 897.684 609.336H929.34C944.638 609.336 957.039 596.935 957.039 581.637V374.621C957.039 359.323 944.638 346.922 929.34 346.922Z" fill="#EDEDED"></path>
<path d="M363.481 390.659H70.6602C55.3623 390.659 42.9609 403.061 42.9609 418.358V887.789C42.9609 903.087 55.3623 915.488 70.6602 915.488H363.481C378.779 915.488 391.18 903.087 391.18 887.789V418.358C391.18 403.061 378.779 390.659 363.481 390.659Z" fill="#912727"></path>
<path d="M363.481 84.5098H288.297C272.999 84.5098 260.598 96.9112 260.598 112.209V188.018C260.598 203.315 272.999 215.717 288.297 215.717H363.481C378.779 215.717 391.18 203.315 391.18 188.018V112.209C391.18 96.9112 378.779 84.5098 363.481 84.5098Z" fill="#3D6082"></path>
<path d="M434.706 243.415C434.706 228.117 447.107 215.716 462.405 215.716H842.282C857.58 215.716 869.981 228.117 869.981 243.415V319.224C869.981 334.521 857.58 346.923 842.282 346.923H462.405C447.107 346.923 434.706 334.521 434.706 319.224V243.415Z" fill="#EDEDED"></path>
<path d="M929.34 346.922H897.684C882.386 346.922 869.984 359.323 869.984 374.621V581.637C869.984 596.935 882.386 609.336 897.684 609.336H929.34C944.638 609.336 957.039 596.935 957.039 581.637V374.621C957.039 359.323 944.638 346.922 929.34 346.922Z" fill="#EDEDED"></path>
<path d="M434.706 243.415C434.706 228.117 447.107 215.716 462.405 215.716H842.282C857.58 215.716 869.981 228.117 869.981 243.415V319.224C869.981 334.521 857.58 346.923 842.282 346.923H462.405C447.107 346.923 434.706 334.521 434.706 319.224V243.415Z" fill="#EDEDED"></path>
<path d="M929.34 346.922H897.684C882.386 346.922 869.984 359.323 869.984 374.621V581.637C869.984 596.935 882.386 609.336 897.684 609.336H929.34C944.638 609.336 957.039 596.935 957.039 581.637V374.621C957.039 359.323 944.638 346.922 929.34 346.922Z" fill="#EDEDED"></path>
<path d="M363.481 390.659H70.6602C55.3623 390.659 42.9609 403.061 42.9609 418.358V887.789C42.9609 903.087 55.3623 915.488 70.6602 915.488H363.481C378.779 915.488 391.18 903.087 391.18 887.789V418.358C391.18 403.061 378.779 390.659 363.481 390.659Z" fill="#912727"></path>
<path d="M363.481 84.5098H288.297C272.999 84.5098 260.598 96.9112 260.598 112.209V188.018C260.598 203.315 272.999 215.717 288.297 215.717H363.481C378.779 215.717 391.18 203.315 391.18 188.018V112.209C391.18 96.9112 378.779 84.5098 363.481 84.5098Z" fill="#3D6082"></path>
<path d="M434.706 243.415C434.706 228.117 447.107 215.716 462.405 215.716H842.282C857.58 215.716 869.981 228.117 869.981 243.415V319.224C869.981 334.521 857.58 346.923 842.282 346.923H462.405C447.107 346.923 434.706 334.521 434.706 319.224V243.415Z" fill="#EDEDED"></path>
<path d="M929.34 346.922H897.684C882.386 346.922 869.984 359.323 869.984 374.621V581.637C869.984 596.935 882.386 609.336 897.684 609.336H929.34C944.638 609.336 957.039 596.935 957.039 581.637V374.621C957.039 359.323 944.638 346.922 929.34 346.922Z" fill="#EDEDED"></path>
<path d="M434.706 243.415C434.706 228.117 447.107 215.716 462.405 215.716H842.282C857.58 215.716 869.981 228.117 869.981 243.415V319.224C869.981 334.521 857.58 346.923 842.282 346.923H462.405C447.107 346.923 434.706 334.521 434.706 319.224V243.415Z" fill="#EDEDED"></path>
<path d="M929.34 346.922H897.684C882.386 346.922 869.984 359.323 869.984 374.621V581.637C869.984 596.935 882.386 609.336 897.684 609.336H929.34C944.638 609.336 957.039 596.935 957.039 581.637V374.621C957.039 359.323 944.638 346.922 929.34 346.922Z" fill="#EDEDED"></path>
<path d="M363.481 390.659H70.6602C55.3623 390.659 42.9609 403.061 42.9609 418.358V887.789C42.9609 903.087 55.3623 915.488 70.6602 915.488H363.481C378.779 915.488 391.18 903.087 391.18 887.789V418.358C391.18 403.061 378.779 390.659 363.481 390.659Z" fill="#912727"></path>
<path d="M363.481 84.5098H288.297C272.999 84.5098 260.598 96.9112 260.598 112.209V188.018C260.598 203.315 272.999 215.717 288.297 215.717H363.481C378.779 215.717 391.18 203.315 391.18 188.018V112.209C391.18 96.9112 378.779 84.5098 363.481 84.5098Z" fill="#3D6082"></path>
<path d="M434.706 243.415C434.706 228.117 447.107 215.716 462.405 215.716H842.282C857.58 215.716 869.981 228.117 869.981 243.415V319.224C869.981 334.521 857.58 346.923 842.282 346.923H462.405C447.107 346.923 434.706 334.521 434.706 319.224V243.415Z" fill="#EDEDED"></path>
<path d="M929.34 346.922H897.684C882.386 346.922 869.984 359.323 869.984 374.621V581.637C869.984 596.935 882.386 609.336 897.684 609.336H929.34C944.638 609.336 957.039 596.935 957.039 581.637V374.621C957.039 359.323 944.638 346.922 929.34 346.922Z" fill="#EDEDED"></path>
<path d="M434.706 243.415C434.706 228.117 447.107 215.716 462.405 215.716H842.282C857.58 215.716 869.981 228.117 869.981 243.415V319.224C869.981 334.521 857.58 346.923 842.282 346.923H462.405C447.107 346.923 434.706 334.521 434.706 319.224V243.415Z" fill="white"></path>
<path d="M929.34 346.922H897.684C882.386 346.922 869.984 359.323 869.984 374.621V581.637C869.984 596.935 882.386 609.336 897.684 609.336H929.34C944.638 609.336 957.039 596.935 957.039 581.637V374.621C957.039 359.323 944.638 346.922 929.34 346.922Z" fill="white"></path>
<path d="M363.481 390.659H70.6602C55.3623 390.659 42.9609 403.061 42.9609 418.358V887.789C42.9609 903.087 55.3623 915.488 70.6602 915.488H363.481C378.779 915.488 391.18 903.087 391.18 887.789V418.358C391.18 403.061 378.779 390.659 363.481 390.659Z" fill="#912727"></path>
<path d="M363.481 84.5098H288.297C272.999 84.5098 260.598 96.9112 260.598 112.209V188.018C260.598 203.315 272.999 215.717 288.297 215.717H363.481C378.779 215.717 391.18 203.315 391.18 188.018V112.209C391.18 96.9112 378.779 84.5098 363.481 84.5098Z" fill="#3D6082"></path>
<path d="M622.115 609.339H842.286C857.584 609.339 869.985 621.74 869.985 637.038V887.789C869.985 903.087 857.584 915.488 842.286 915.488H818.196C809.673 915.488 801.626 911.566 796.377 904.852L600.293 654.101C586.075 635.916 599.03 609.339 622.115 609.339Z" fill="white"></path>
</g>
</g>
</g>
</g><defs>
<clipPath id="clip0_533_600">
<rect width="914.077" height="914.077" fill="white" transform="translate(42.9609 42.9609)"></rect>
</clipPath>
<clipPath id="clip1_533_600">
<rect width="914.077" height="914.077" fill="white" transform="translate(42.9609 42.9609)"></rect>
</clipPath>
<clipPath id="clip2_533_600">
<rect width="914.077" height="830.978" fill="white" transform="translate(42.9609 84.5098)"></rect>
</clipPath>
<clipPath id="clip3_533_600">
<rect width="914.077" height="830.978" fill="white" transform="translate(42.9609 84.5098)"></rect>
</clipPath>
</defs></svg></g></g></svg></g></svg>