<svg width="8" height="9" viewBox="0 0 8 9" fill="none" xmlns="http://www.w3.org/2000/svg">
<g filter="url(#filter0_d_421_557)">
<path d="M2.98547 1.57099L3.47171 2.26666L3.48163 2.25896C3.54774 2.20818 3.64109 2.1414 3.71979 2.11004C3.79107 2.08157 3.8708 2.07312 3.93279 2.07096C4.01973 2.06815 4.10148 2.09985 4.17024 2.14978L4.19697 2.12652C4.26092 2.07267 4.36386 1.99538 4.46963 1.97712C4.57707 1.95845 4.70755 1.99651 4.79033 2.02596C4.82316 2.03783 4.85218 2.04907 4.87738 2.05966L5.00471 1.97067C5.06583 1.92795 5.13677 1.9007 5.21293 1.89068C5.28909 1.88065 5.3688 1.88808 5.4469 1.91248C5.52501 1.93688 5.59979 1.97771 5.66641 2.03233C5.73304 2.08696 5.79003 2.15417 5.83372 2.22964L6.26027 2.96664C6.33714 3.09937 6.38877 3.24372 6.41181 3.39031L6.54363 4.22884C6.55604 4.30769 6.54875 4.38555 6.5225 4.45452C6.49625 4.52348 6.45197 4.58111 6.39414 4.62156L5.01548 5.58516C4.95451 5.62778 4.88084 5.64966 4.80273 5.64835C4.72463 5.64704 4.64519 5.6226 4.57331 5.57776L3.87248 5.14113L2.5844 4.45879C2.48621 4.4064 2.40439 4.32042 2.35428 4.217C2.30417 4.11357 2.28923 3.99981 2.31225 3.89705C2.33527 3.7943 2.39468 3.70961 2.47932 3.65889C2.56397 3.60817 2.66803 3.59491 2.77198 3.62158L3.39116 3.78206L2.2198 2.10615C2.1367 1.98727 2.09735 1.84507 2.11039 1.71083C2.12344 1.57658 2.18781 1.4613 2.28934 1.39033C2.39088 1.31936 2.52126 1.29853 2.65181 1.33241C2.78236 1.36629 2.90238 1.45211 2.98547 1.57099Z" fill="#DCDCDC"/>
<path d="M2.1748 1.22614C2.32888 1.11851 2.52081 1.09158 2.70225 1.13867C2.88245 1.18547 3.04136 1.30167 3.14948 1.45636L3.52151 1.98864C3.56181 1.96417 3.60409 1.94104 3.6458 1.92441L3.72327 1.89886C3.79976 1.8788 3.87283 1.87349 3.92585 1.87165L3.92665 1.87109C4.0074 1.86852 4.08227 1.88556 4.14999 1.91277C4.22297 1.86046 4.32293 1.79918 4.43586 1.77968L4.43506 1.78024C4.59399 1.75263 4.76342 1.80537 4.84888 1.83534L4.8897 1.80681C4.97794 1.74514 5.08008 1.70598 5.18707 1.6919C5.29374 1.6779 5.40273 1.68874 5.50658 1.72116C5.61048 1.75362 5.70826 1.8079 5.79368 1.87793C5.87891 1.9479 5.95099 2.03372 6.00647 2.12953L6.4334 2.86651C6.52218 3.01983 6.58279 3.18747 6.60978 3.35921L6.74095 4.19806C6.75827 4.30835 6.7485 4.42139 6.70888 4.52549C6.66911 4.62995 6.60128 4.72087 6.50924 4.78536L5.13011 5.74929C5.03282 5.81727 4.91702 5.8504 4.79906 5.84842C4.68184 5.8464 4.56751 5.80984 4.46768 5.74762L3.77876 5.31768L2.49071 4.63569L2.49015 4.63489C2.35345 4.56189 2.24217 4.44412 2.1743 4.30402C2.10648 4.16396 2.08293 4.00427 2.11669 3.8534C2.1508 3.70119 2.24151 3.56801 2.37656 3.48709C2.51111 3.40652 2.67068 3.38923 2.82118 3.42772L2.82254 3.42796L2.91709 3.45243L2.05609 2.22057C1.94794 2.06584 1.89341 1.87677 1.91142 1.69141C1.92957 1.50481 2.02072 1.33383 2.1748 1.22614Z" stroke="#525252" stroke-width="0.4"/>
</g>
<defs>
<filter id="filter0_d_421_557" x="0.707947" y="0.916626" width="7.24158" height="7.13177" filterUnits="userSpaceOnUse" color-interpolation-filters="sRGB">
<feFlood flood-opacity="0" result="BackgroundImageFix"/>
<feColorMatrix in="SourceAlpha" type="matrix" values="0 0 0 0 0 0 0 0 0 0 0 0 0 0 0 0 0 0 127 0" result="hardAlpha"/>
<feOffset dy="1"/>
<feGaussianBlur stdDeviation="0.5"/>
<feComposite in2="hardAlpha" operator="out"/>
<feColorMatrix type="matrix" values="0 0 0 0 0 0 0 0 0 0 0 0 0 0 0 0 0 0 0.25 0"/>
<feBlend mode="normal" in2="BackgroundImageFix" result="effect1_dropShadow_421_557"/>
<feBlend mode="normal" in="SourceGraphic" in2="effect1_dropShadow_421_557" result="shape"/>
</filter>
</defs>
</svg>
