<svg width="52" height="42" viewBox="0 0 52 42" fill="none" xmlns="http://www.w3.org/2000/svg">
<path d="M33.2105 41.8929H1L3.68421 39H35.8947L38.5789 41.8929L33.2105 41.8929Z" fill="#35555C" fill-opacity="0.73"/>
<path d="M41.2632 1H27.8421L25.1579 9.05263H41.2632V1Z" fill="#F7F7F7" stroke="black"/>
<rect x="44.1974" y="9.30261" width="7.55263" height="4.86842" fill="#ED5F13" stroke="black" stroke-width="0.5"/>
<path d="M33.2105 30.5263H1L3.68421 38.579H35.8947L38.5789 30.5263L30.5263 14.4211H26.5L33.2105 30.5263Z" fill="#F7F7F7" stroke="black"/>
<path d="M37.7686 4.06738C37.9158 4.34595 38 4.66301 38 5C38 6.10457 37.1046 7 36 7C35.886 7 35.7748 6.98707 35.666 6.96875C35.8601 6.90003 36 6.71759 36 6.5C36 6.22386 35.7761 6 35.5 6C35.2239 6 35 6.22386 35 6.5C35 6.60184 35.0307 6.69638 35.083 6.77539C34.507 6.4773 34.0951 5.90921 34.0156 5.2373L37.7686 4.06738Z" fill="black"/>
</svg>
