<svg width="4" height="5" viewBox="0 0 4 5" fill="none" xmlns="http://www.w3.org/2000/svg">
<path d="M2.21346 0.546875V1.39563L2.22286 1.395C2.28532 1.39125 2.3714 1.39 2.43325 1.40938C2.4893 1.42688 2.54195 1.46562 2.58098 1.49937C2.63563 1.54687 2.67226 1.61969 2.69308 1.7L2.71951 1.69625C2.78196 1.68875 2.87845 1.68437 2.95131 1.73C3.02538 1.77625 3.08924 1.88219 3.12747 1.95375C3.14255 1.98229 3.15556 2.00812 3.1665 2.03125H3.28301C3.33894 2.03125 3.39425 2.04955 3.44538 2.08497C3.49651 2.12039 3.54231 2.17214 3.57984 2.23688C3.61737 2.30162 3.6458 2.37793 3.66328 2.46087C3.68077 2.54381 3.68693 2.63155 3.68136 2.71844L3.62691 3.56687C3.61714 3.7197 3.58685 3.8676 3.53803 4.00094L3.25879 4.76375C3.23253 4.83549 3.1946 4.89513 3.14883 4.93662C3.10306 4.97811 3.05108 4.99997 2.99815 5H1.73663C1.68084 5 1.62615 4.97573 1.5787 4.92991C1.53125 4.8841 1.49291 4.81855 1.46799 4.74063L1.22478 3.98125L0.726131 2.68406C0.688282 2.58487 0.674921 2.46753 0.688556 2.35405C0.702191 2.24057 0.741884 2.13877 0.800187 2.06773C0.85849 1.9967 0.931395 1.96132 1.00522 1.96824C1.07904 1.97516 1.14871 2.0239 1.20115 2.10531L1.51283 2.59156V0.546875C1.51283 0.401835 1.54974 0.262735 1.61544 0.160176C1.68113 0.057617 1.77024 0 1.86314 0C1.95605 0 2.04516 0.057617 2.11085 0.160176C2.17655 0.262735 2.21346 0.401835 2.21346 0.546875Z" fill="#FAFAFA"/>
</svg>
