<svg width="78" height="76" viewBox="0 0 78 76" fill="none" xmlns="http://www.w3.org/2000/svg">
<path fill-rule="evenodd" clip-rule="evenodd" d="M39.0323 0C17.4484 0 0 17.4166 0 38.9633C0 56.1867 11.1798 70.766 26.6892 75.9261C28.6282 76.314 29.3385 75.0877 29.3385 74.0562C29.3385 73.1529 29.2746 70.0567 29.2746 66.8306C18.4168 69.1534 16.1557 62.186 16.1557 62.186C14.4108 57.6703 11.8254 56.5097 11.8254 56.5097C8.27161 54.1229 12.0842 54.1229 12.0842 54.1229C16.0263 54.3809 18.0948 58.1223 18.0948 58.1223C21.5838 64.0567 27.2061 62.3799 29.468 61.3476C29.7907 58.8317 30.8254 57.09 31.9239 56.1226C23.264 55.2193 14.1527 51.865 14.1527 36.8986C14.1527 32.6411 15.7027 29.1578 18.1587 26.4487C17.7712 25.4813 16.4138 21.481 18.547 16.127C18.547 16.127 21.8427 15.0946 29.2738 20.1265C32.4553 19.2736 35.7364 18.8397 39.0323 18.836C42.328 18.836 45.6876 19.2881 48.7899 20.1265C56.2218 15.0946 59.5175 16.127 59.5175 16.127C61.6508 21.481 60.2925 25.4813 59.905 26.4487C62.4257 29.1578 63.9118 32.6411 63.9118 36.8986C63.9118 51.865 54.8005 55.1544 46.0759 56.1226C47.498 57.3481 48.7252 59.67 48.7252 63.3473C48.7252 68.5723 48.6613 72.7657 48.6613 74.0554C48.6613 75.0877 49.3724 76.314 51.3106 75.9268C66.82 70.7652 77.9998 56.1867 77.9998 38.9633C78.0637 17.4166 60.5514 0 39.0323 0Z" fill="white"/>
</svg>
