<svg width="6" height="7" viewBox="0 0 6 7" fill="none" xmlns="http://www.w3.org/2000/svg">
<path d="M1.1748 1.22614C1.32888 1.11851 1.52081 1.09158 1.70225 1.13867C1.88245 1.18547 2.04136 1.30167 2.14948 1.45636L2.52151 1.98864C2.56181 1.96417 2.60409 1.94104 2.6458 1.92441L2.72327 1.89886C2.79976 1.8788 2.87283 1.87349 2.92585 1.87165L2.92665 1.87109C3.0074 1.86852 3.08227 1.88556 3.14999 1.91277C3.22297 1.86046 3.32293 1.79918 3.43586 1.77968L3.43506 1.78024C3.59399 1.75263 3.76342 1.80537 3.84888 1.83534L3.8897 1.80681C3.97794 1.74514 4.08008 1.70598 4.18707 1.6919C4.29374 1.6779 4.40273 1.68873 4.50658 1.72116C4.61048 1.75362 4.70827 1.8079 4.79368 1.87793C4.87891 1.9479 4.95099 2.03372 5.00647 2.12953L5.4334 2.86651C5.52218 3.01983 5.58279 3.18747 5.60978 3.35921L5.74095 4.19806C5.75827 4.30835 5.7485 4.42139 5.70888 4.52549C5.66911 4.62995 5.60128 4.72087 5.50924 4.78536L4.13011 5.74929C4.03282 5.81727 3.91702 5.8504 3.79906 5.84842C3.68183 5.8464 3.56751 5.80984 3.46768 5.74762L2.77876 5.31768L1.49071 4.63569L1.49015 4.63489C1.35345 4.56189 1.24217 4.44412 1.1743 4.30402C1.10648 4.16396 1.08293 4.00427 1.11669 3.8534C1.1508 3.70119 1.24151 3.56801 1.37656 3.48709C1.51111 3.40652 1.67068 3.38923 1.82118 3.42772L1.82254 3.42796L1.91709 3.45243L1.05609 2.22057C0.947941 2.06584 0.893413 1.87677 0.911422 1.69141C0.929574 1.50481 1.02072 1.33383 1.1748 1.22614Z" fill="#DCDCDC" stroke="#525252" stroke-width="0.4"/>
</svg>
