
<svg width="78" height="76" viewBox="0 0 78 76" fill="none" xmlns="http://www.w3.org/2000/svg">
<ellipse cx="39" cy="38" rx="39" ry="38" fill="currentColor"/>
<path d="M16.5948 59.9051C15.0888 59.9051 13.7882 59.3803 12.693 58.3307C11.6433 57.2354 11.1185 55.9348 11.1185 54.4288V21.571C11.1185 20.065 11.6433 18.7872 12.693 17.7376C13.7882 16.6424 15.0888 16.0947 16.5948 16.0947H60.4052C61.9112 16.0947 63.189 16.6424 64.2386 17.7376C65.3339 18.7872 65.8815 20.065 65.8815 21.571V54.4288C65.8815 55.9348 65.3339 57.2354 64.2386 58.3307C63.189 59.3803 61.9112 59.9051 60.4052 59.9051H16.5948ZM38.5 40.7381L60.4052 27.0473V21.571L38.5 35.2618L16.5948 21.571V27.0473L38.5 40.7381Z" fill="black"/>
</svg>
